**ABCDEFGHIJKLMNOPQRSTUVWXYZabcdefghijklmnopqrstuvwxyz**************************
**PARASOLID !"#$%&'()*+,-./:;<=>?@[\]^_`{|}~0123456789**************************
**PART1;
MC=x64/Windows NT;
MC_MODEL=genuineintel family 6 model 14 stepping 10, intel(r) core(tm) i3-9100f cpu @ 3.60ghz;
MC_ID=desktop-keenk7i;
OS=windows nt (x64);
OS_RELEASE=6.3 windows 10 pro (build 18362) ;
FRU=mdc_ugii_v7.0_djl_can_vrh;
APPL=unigraphics;
SITE=unknown;
USER=TDS;
FORMAT=text;
GUISE=transmit;
KEY=shaft;
FILE=F:\ECO INDIA Important Data\RO PUMP Armature DRAWING\RENDERING\shaft.x_t;
DATE=29-aug-2023;
**PART2;
SCH=SCH_2900123_28101;
USFLD_SIZE=0;
**PART3;
**END_OF_HEADER*****************************************************************
T51 : TRANSMIT FILE created by modeller version 290012323 SCH_2900123_28101_1300
6203 0 12 33 CCCCCCI4 mesh1006 0 I8 polyline1008 0 CCCCCCCDI5 owner1040 0 CCCCCC
I13 boundary_mesh1006 0 I17 boundary_polyline1008 0 CCCA16 index_map_offset0 0 1
 dA9 index_map82 0 A17 node_id_index_map82 0 A20 schema_embedding_map82 0 A5 chi
ld12 0 A14 lowest_node_id0 0 1 dZ1 550 2 3 0 0 0 0 0 0 1e3 1e-8 0 4 0 1 0 1 1 5
 6 7 8 0 0 9 10 11 0 0 0 0 0 0 81 255 1 2 550 12 1 13 0 0 0 14 70 11 CI9 list_ty
pe0 0 1 uI10 notransmit0 0 1 lCCCDCCDI12 finger_index0 0 1 dI12 finger_block1012
 0 CZ3 0 4 T1 0 0 6 20 1 15 15 13 255 5 4 0 1 0 16 0 0 17 0 51 255 6 245 0 18 19
 0 0 +-.0002630060191344655 -.003469106033072785 -.144637155920304 -156819002228
304e-29 -148370054061928e-45 1 204e-6 2326724383855105e-61 -1 -148370054061928e-
45 38 255 7 274 0 20 21 0 0 +22 23 24 25 26 29 255 8 276 0 27 28 0 .002796993980
865355 -.002087772370358645 -.0280001559203039 19 8 CCCCCCCA5 owner12 0 Z9 2 0 1
 17 0 29 V0 16 255 10 14 30 ?31 0 32 33 0 0 1 18 255 11 8 0 34 0 35 36 ?1 17 255
 34 0 37 38 31 11 39 40 0 41 -18 35 11 0 42 11 43 44 ?1 29 36 148 0 11 0 45 -.00
433790601913446 .0004069577268912565 -.144637155920304 29 45 149 0 46 36 44 -.00
4337906019134585 .0004069577268912565 -.0661991559203039 18 46 9 0 39 43 47 45 ?
1 29 44 151 0 35 45 48 -.00433790601913446 .000814830206963155 -.144637155920304
 29 48 153 0 43 44 49 -.004337906019134585 .000814830206963155 -.066199155920303
9 18 43 13 0 50 35 46 48 ?1 29 49 156 0 47 48 51 .00381189398086554 .00081483020
6963174 -.144637155920304 18 47 17 0 52 46 53 49 ?1 29 51 157 0 54 49 55 .003811
893980865415 .000814830206963174 -.0661991559203038 18 54 18 0 56 57 58 51 ?1 29
 55 159 0 53 51 59 .00381189398086554 .000406957726891277 -.144637155920304 18 5
3 20 0 60 47 57 55 ?1 29 59 161 0 57 55 61 .003811893980865415 .0004069577268912
77 -.0661991559203038 18 57 22 0 62 53 54 59 ?1 29 61 164 0 58 59 63 -.000263006
019134608 -.003469106033072785 -.0534491559203039 18 58 26 0 64 54 65 61 ?1 29 6
3 166 0 65 61 66 -.000263006019134453 .00469089396692721 -.152287155920304 18 65
 29 0 67 58 68 63 ?1 29 66 168 0 68 63 69 -.000466942259170423 .0046857939669272
2 -.144637155920304 18 68 32 0 70 65 71 66 ?1 29 69 169 0 72 66 73 -.00046694225
9170547 .00468579396692722 -.0661991559203039 18 72 33 0 74 75 76 69 ?1 29 73 17
1 0 71 69 77 -590697790985258e-19 .00468579396692722 -.144637155920304 18 71 35
 0 78 68 75 73 ?1 29 77 173 0 75 73 79 -590697790986488e-19 .00468579396692722 -
.0661991559203039 18 75 37 0 80 71 72 77 ?1 29 79 176 0 76 77 81 -59069779098516
6e-19 -.003464006033072785 -.144637155920304 18 76 41 0 82 72 83 79 ?1 29 81 177
 0 84 79 85 -590697790986391e-19 -.003464006033072785 -.0661991559203039 18 84 4
2 0 86 87 88 81 ?1 29 85 179 0 83 81 89 -.000466942259170414 -.00346400603307278
5 -.144637155920304 18 83 44 0 90 76 87 85 ?1 29 89 181 0 87 85 91 -.00046694225
9170536 -.003464006033072785 -.0661991559203039 18 87 46 0 92 83 84 89 ?1 29 91
 185 0 88 89 93 -.000263006019134453 -.002474606033072785 -.152287155920304 18 8
8 51 0 94 84 95 91 ?1 29 93 188 0 95 91 96 -.000263006019134452 -.00247460603307
2785 -.153256155920304 18 95 56 0 97 88 98 93 ?1 29 96 190 0 98 93 99 -.00026300
6019134451 .00469089396692721 -.153256155920304 18 98 59 0 100 95 101 96 ?1 29 9
9 194 0 101 96 102 -.00026300601913444 -.002449106033072785 -.160396155920304 18
 101 66 0 103 98 104 99 ?1 29 102 197 0 104 99 105 -.000263006019134442 -.003469
106033072785 -.159376155920304 18 104 70 0 106 101 107 102 ?1 29 105 201 0 107 1
02 108 -.000263006019134608 -.002474606033072785 -.0534491559203039 18 107 78 0
 109 104 110 105 ?1 29 108 204 0 110 105 111 -.0002630060191346095 -.00247460603
3072785 -.0524801559203039 18 110 83 0 112 107 113 108 ?1 29 111 206 0 113 108 1
14 -.0002630060191346095 -.003469106033072785 -.0524801559203039 18 113 86 0 115
 110 116 111 ?1 29 114 219 0 117 111 118 .002796993980865385 -.00208777237035868
 -.0453401559203038 18 117 104 0 119 27 120 114 ?1 29 118 220 0 120 114 121 .002
796993980865385 .003309560304213085 -.0453401559203038 18 120 105 0 122 117 0 11
8 ?1 29 121 270 0 123 118 28 .002796993980865355 .003309560304213075 -.028000155
9203039 18 123 97 0 124 116 27 121 ?1 29 28 275 0 116 121 8 .002796993980865355
 .00061089396692721 -.0269801559203039 18 116 93 0 125 113 123 28 ?1 17 125 0 12
6 127 128 116 124 129 0 130 +15 255 126 110 0 131 132 0 17 127 0 126 133 125 27
 134 20 0 135 +17 128 0 126 125 131 123 136 137 0 0 -17 124 0 138 135 130 123 12
5 129 0 139 -16 129 96 140 ?125 141 20 21 0 0 1 17 130 0 138 124 134 116 142 143
 0 142 -15 138 95 0 124 144 0 17 134 0 138 130 135 116 127 20 0 0 -17 142 0 145
 142 142 116 130 143 0 134 +16 143 92 146 ?142 147 148 149 0 0 1 81 1 146 464 15
0 143 0 0 151 30 152 16 147 77 151 ?153 154 143 155 0 0 1 16 148 106 156 ?157 14
3 158 159 0 0 1 31 255 149 256 0 143 160 159 0 +-.00026300601913465 .00061089396
692721 -.0269801559203039 -156819002228304e-29 -148370054061928e-45 1 2326724383
855105e-61 -1 -148370054061928e-45 .00306 30 255 160 254 0 137 161 149 0 +.00279
699398086556 .003309560304213095 -.160396155920304 156819002228304e-29 148370054
061928e-45 -1 30 159 265 0 148 149 21 0 +.00279699398086556 -.00208777237035867
 -.160396155920304 -156819002228304e-29 -148370054061928e-45 1 38 21 269 0 129 1
59 7 0 +22 23 162 163 164 52 255 22 211 0 144 165 166 167 +-.000263006019134648
 .00061089396692721 -.0280001559203039 156819002228304e-29 148370054061928e-45 -
1 .00408 .707106781186548 .707106781186548 1192196673741704e-46 1 14791141972893
96e-46 50 255 23 223 0 132 166 168 169 +.002796993980865385 .00061089396692721 -
.0453401559203038 -1 -418096279767137e-42 -156819002228304e-29 -156819002228304e
-29 -4122747621583015e-72 1 40 255 3 162 0 1 3 .000321461853576993 .299390530898
424 ??.00279699398086536 .00330956030421305 -.02800015592030385 .002796993980865
355 .00160390911999804 -.02713724763398385 .002796993980865355 .0006108939669272
11 -.0269801559203039 41 3 CI8 term_use0 0 1 cCZ1 163 L?.00279699398086536 .0033
0956030421305 -.02800015592030385 41 1 164 L?.002796993980865355 .00061089396692
7211 -.0269801559203039 14 255 132 109 170 ?171 172 126 5 23 -0 0 171 172 29 51
 166 217 0 172 22 23 0 +-.00026300601913444 .00061089396692721 -.160396155920304
 -156819002228304e-29 -148370054061928e-45 1 .00408 2326724383855105e-61 -1 -148
370054061928e-45 50 168 225 0 171 23 173 0 +-.0002630060191346205 .0006108939669
2721 -.0453401559203038 -156819002228304e-29 -148370054061928e-45 1 232672438385
5105e-61 -1 -148370054061928e-45 141 255 169 21 174 174 23 141 174 7 169 169 23
 14 171 112 175 ?176 132 177 5 168 +0 0 176 132 29 50 173 226 0 176 168 178 0 +.
003816993980865415 .000610893966927226 -.0661991559203038 -156819002228304e-29 -
148370054061928e-45 1 -367501168385687e-29 1 -561474660033601e-44 14 176 114 179
 ?180 171 181 5 173 -0 0 180 171 29 50 178 228 0 180 173 182 0 +.003816993980865
54 .000610893966927226 -.144637155920304 -179203873962308e-27 -66386823999367e-4
1 1 -367501168385687e-29 1 52919093897742e-43 14 180 117 183 ?184 176 185 5 178
 +0 0 184 176 29 51 182 230 0 184 178 186 0 +.00381699398086554 .000610893966927
226 -.144637155920304 -156819002228304e-29 -148370054061928e-45 1 204e-6 1 37947
0760369927e-29 156819002228304e-29 14 184 120 187 ?188 180 189 5 182 -0 0 188 18
0 29 50 186 231 0 188 182 190 0 +-.000263006019134598 .00469089396692721 -.06619
91559203039 -156819002228304e-29 -148370054061928e-45 1 -1 -228202873264749e-29
 -156819002228304e-29 14 188 122 191 ?192 184 193 5 186 -0 0 192 184 29 50 190 2
33 0 192 186 194 0 +-.0002630060191344745 .00469089396692721 -.144637155920304 -
156819002228262e-29 -177635683940025e-27 1 -1 -228202873264749e-29 -156819002228
3025e-30 14 192 125 195 ?196 188 197 5 190 +0 0 196 188 29 51 194 235 0 196 190
 198 0 +-.0002630060191344745 .00469089396692721 -.144637155920304 -156819002228
304e-29 -148370054061928e-45 1 204e-6 -2439454888092395e-30 1 -3677158761254155e
-45 14 196 128 199 ?200 192 201 5 194 -0 0 200 192 29 50 198 236 0 200 194 202 0
 +-.004343006019134585 .000610893966927205 -.0661991559203039 -156819002228304e-
29 -148370054061928e-45 1 111022302462516e-29 -1 1592670615664145e-45 14 200 130
 203 ?204 196 205 5 198 -0 0 204 196 29 50 202 238 0 204 198 206 0 +-.0043430060
19134465 .000610893966927205 -.144637155920304 176067493917742e-27 2079439048388
4e-41 1 111022302462516e-29 -1 124697192033125e-43 14 204 133 207 ?208 200 209 5
 202 +0 0 208 200 29 51 206 240 0 208 202 210 0 +-.004343006019134465 .000610893
966927205 -.144637155920304 -156819002228304e-29 -148370054061928e-45 1 204e-6 -
1 -1084202172485502e-30 -156819002228304e-29 14 208 136 211 ?212 204 213 5 206 -
0 0 212 204 29 50 210 241 0 212 206 19 0 +-.000263006019134588 -.003469106033072
785 -.0661991559203039 -156819002228304e-29 -148370054061928e-45 1 1 -6114900252
81825e-31 156819002228304e-29 14 212 138 214 ?215 208 216 5 210 -0 0 215 208 29
 50 19 243 0 215 210 6 0 +-.0002630060191344655 -.003469106033072785 -.144637155
920304 -156819002228304e-29 177635683940025e-27 1 1 -61149002528185e-30 15681900
2228305e-29 14 215 141 217 ?18 212 218 5 19 +0 0 18 212 29 81 1 217 548 219 215
 220 0 214 221 222 14 18 144 221 ?0 215 223 5 6 -0 0 0 215 29 15 218 142 0 224 2
15 0 13 29 3 0 0 0 0 0 0 9 16 14 16 5 225 ?226 0 37 5 227 +0 0 226 0 29 81 1 225
 523 219 16 228 0 0 229 230 14 226 48 229 ?231 16 232 5 233 -0 0 231 16 29 15 37
 6 0 34 16 234 51 227 146 0 16 0 233 0 +-.00026300601913444 .00061089396692721 -
.160396155920304 -156819002228304e-29 -148370054061928e-45 1 .00408 232672438385
5105e-61 -1 -148370054061928e-45 50 233 183 0 226 227 235 0 +-.00026300601913445
3 .00061089396692721 -.152287155920304 -156819002228304e-29 -148370054061928e-45
 1 2326724383855105e-61 -1 -148370054061928e-45 50 235 186 0 231 233 236 0 +-.00
0263006019134451 .00061089396692721 -.153256155920304 -156819002228304e-29 -1483
70054061928e-45 1 2326724383855105e-61 -1 -148370054061928e-45 14 231 53 237 ?23
8 226 239 5 235 +0 0 238 226 29 51 236 191 0 238 235 240 0 +-.000263006019134453
 .00061089396692721 -.152287155920304 156819002228304e-29 148370054061928e-45 -1
 .0030855 -2326724383855105e-61 1 148370054061928e-45 14 238 60 241 ?242 231 243
 5 236 +0 0 242 231 29 50 240 192 0 242 236 244 0 +-.00026300601913444 .00061089
396692721 -.160396155920304 156819002228304e-29 148370054061928e-45 -1 -23267243
83855105e-61 1 148370054061928e-45 14 242 63 245 ?246 238 247 5 240 +0 0 246 238
 29 52 244 195 0 246 240 248 0 +-.00026300601913444 .00061089396692721 -.1603961
55920304 -156819002228304e-29 -148370054061928e-45 1 .00306 .707106781186548 .70
7106781186548 2326724383855105e-61 -1 -148370054061928e-45 14 246 67 249 ?250 24
2 251 5 244 +0 0 250 242 29 51 248 198 0 250 244 252 0 +-.00026300601913444 .000
61089396692721 -.160396155920304 -156819002228304e-29 -148370054061928e-45 1 .00
408 2326724383855105e-61 -1 -148370054061928e-45 14 250 72 253 ?254 246 255 5 24
8 +0 0 254 246 29 50 252 199 0 254 248 256 0 +-.000263006019134608 .000610893966
92721 -.0534491559203039 156819002228304e-29 148370054061928e-45 -1 -23267243838
55105e-61 1 148370054061928e-45 14 254 75 257 ?258 250 259 5 252 -0 0 258 250 29
 50 256 202 0 258 252 260 0 +-.0002630060191346095 .00061089396692721 -.05248015
59203039 156819002228304e-29 148370054061928e-45 -1 -2326724383855105e-61 1 1483
70054061928e-45 14 258 80 261 ?262 254 263 5 256 +0 0 262 254 29 51 260 207 0 26
2 256 165 0 +-.000263006019134608 .00061089396692721 -.0534491559203039 -1568190
02228304e-29 -148370054061928e-45 1 .0030855 2326724383855105e-61 -1 -1483700540
61928e-45 14 262 87 264 ?265 258 266 5 260 +0 0 265 258 29 50 165 208 0 265 260
 22 0 +-.00026300601913465 .00061089396692721 -.0269801559203039 156819002228304
e-29 148370054061928e-45 -1 -2326724383855105e-61 1 148370054061928e-45 14 265 9
0 267 ?144 262 145 5 165 -0 0 144 262 29 81 1 267 533 219 265 268 0 264 269 270
 14 144 94 269 ?172 265 138 5 22 +0 0 172 265 29 15 145 91 0 142 265 0 81 1 269
 534 219 144 271 0 267 272 273 14 172 101 272 ?132 144 274 5 166 +0 0 132 144 29
 81 1 272 535 219 172 275 0 269 170 276 15 274 102 0 119 172 277 17 119 0 274 15
7 136 117 122 278 0 133 -15 277 108 0 115 172 0 17 115 0 277 115 115 113 279 154
 0 279 -17 279 0 280 279 279 113 115 154 0 0 +16 154 85 281 ?279 282 147 283 0 0
 1 81 1 281 462 150 154 0 0 284 151 285 16 282 82 284 ?286 287 154 288 0 0 1 31
 283 205 0 154 288 289 0 +-.0002630060191346095 .00061089396692721 -.05248015592
03039 156819002228304e-29 148370054061928e-45 -1 2326724383855105e-61 -1 -148370
054061928e-45 .00408 31 288 203 0 282 155 283 0 +-.0002630060191346095 .00061089
396692721 -.0524801559203039 -156819002228304e-29 -148370054061928e-45 1 2326724
383855105e-61 -1 -148370054061928e-45 .0030855 31 289 218 0 278 283 290 0 +-.000
2630060191346205 .00061089396692721 -.0453401559203038 -156819002228304e-29 -148
370054061928e-45 1 -2326724383855105e-61 1 148370054061928e-45 .00408 16 278 103
 291 ?122 20 292 289 0 0 1 30 290 224 0 141 289 293 0 +.002796993980865385 .0057
1089396692721 -.0453401559203038 234187669256827e-29 1 382087771676469e-44 16 14
1 111 294 ?131 137 129 290 0 0 1 31 293 227 0 292 290 295 0 +.003816993980865415
 .000610893966927226 -.0661991559203038 154716987914761e-27 -143709198143315e-28
 -1 -1 -37947076036995e-28 -154716987914761e-27 204e-6 16 292 116 296 ?297 278 2
98 293 0 0 1 31 295 229 0 299 293 300 0 +.00381699398086554 .000610893966927226
 -.144637155920304 -356931175141106e-27 147196168001603e-27 1 1 3794707603690535
e-30 3569311751411055e-28 204e-6 16 299 119 301 ?302 298 303 295 0 0 1 31 300 23
2 0 304 295 305 0 +-.000263006019134598 .00469089396692721 -.0661991559203039 15
9391098366147e-28 153148797892477e-27 -1 2439454888092625e-30 -1 -15314879789247
7e-27 204e-6 16 304 124 306 ?307 308 309 300 0 0 1 31 305 234 0 310 300 311 0 +-
.0002630060191344745 .00469089396692721 -.144637155920304 -148764358023887e-27 -
355362985118823e-27 1 -2439454888083325e-30 1 3553629851188225e-28 204e-6 16 310
 127 312 ?313 309 314 305 0 0 1 31 311 237 0 315 305 316 0 +-.004343006019134585
 .000610893966927205 -.0661991559203039 -151580607870194e-27 143709198143319e-28
 -1 1 1084202172485686e-30 -151580607870194e-27 204e-6 16 315 132 317 ?318 319 3
20 311 0 0 1 31 316 239 0 321 311 322 0 +-.004343006019134465 .00061089396692720
5 -.144637155920304 35379479509654e-26 -147196168001604e-27 1 -1 -10842021724762
96e-30 35379479509654e-26 204e-6 16 321 135 323 ?324 320 40 316 0 0 1 31 322 242
 0 325 316 326 0 +-.000263006019134588 -.003469106033072785 -.0661991559203039 -
12802729792049e-27 -153148797892477e-27 -1 -183987003246096e-42 1 -1531487978924
77e-27 204e-6 16 325 140 327 ?328 329 330 322 0 0 1 31 326 244 0 331 322 161 0 +
-.0002630060191344655 -.003469106033072785 -.144637155920304 145627977979321e-27
 355362985118822e-27 1 -887903234679325e-41 -1 355362985118822e-27 204e-6 16 331
 143 332 ?333 330 334 326 0 0 1 31 161 252 0 158 326 160 0 +-.000263006019134648
 .00061089396692721 -.0280001559203039 156819002228304e-29 148370054061928e-45 -
1 2326724383855105e-61 -1 -148370054061928e-45 .00408 16 158 98 335 ?139 148 137
 161 0 0 1 81 1 335 470 150 158 0 0 156 336 337 17 139 0 274 136 157 123 135 158
 0 128 +16 137 107 336 ?136 158 141 160 0 0 1 81 1 336 471 150 137 0 0 335 294 3
38 17 136 0 274 119 139 120 128 137 0 131 +17 131 0 126 128 133 120 339 141 0 0
 +17 133 0 126 131 127 117 157 148 0 339 -17 339 0 177 122 122 117 131 141 0 0 -
15 177 113 0 122 171 0 17 122 0 177 339 339 120 119 278 0 136 +17 157 0 274 139
 119 27 133 148 0 0 +18 27 99 0 127 123 117 8 ?1 80 255 1 150 340 341 9000 1 1 1
 1 1 1 1 1 0 FFFFTFTFFFFFFF3 81 1 294 472 150 141 0 0 336 140 342 84 255 32 338
 a49528db40fcaca828ae818f20b771b881 1 140 473 150 129 0 0 294 343 344 84 32 342
 284d65df35a9d32b889291b953dbbf1a81 1 343 474 150 20 0 0 140 291 345 84 32 344 0
a90b42ce635a1c2ba1c7c052254bc2416 20 100 343 ?127 129 278 7 0 0 1 81 1 291 475 1
50 278 0 0 343 296 346 84 32 345 e8da64c7418687e14a053edaafa1965d81 1 296 476 15
0 292 0 0 291 347 348 84 32 346 d8263f6f370477add36b5443bd04d6ac81 1 347 477 150
 298 0 0 296 301 349 84 32 348 82b09be95937b0ce1f9cebafa452e61a16 298 19 347 ?35
0 292 299 351 0 0 1 81 1 301 478 150 299 0 0 347 352 353 84 32 349 b0cca526514c8
1ec90e621546da7afd881 1 352 479 150 303 0 0 301 354 355 84 32 353 871557245acf41
615d354b71232cd34e16 303 16 352 ?56 299 308 356 0 0 1 81 1 354 480 150 308 0 0 3
52 306 357 84 32 355 112fe171b7b4c96792e431dc3e883d6716 308 21 354 ?60 303 304 3
58 0 0 1 81 1 306 481 150 304 0 0 354 359 360 84 32 357 ba40c4ea112e83621851dcae
b0f6baaa81 1 359 482 150 309 0 0 306 312 361 84 32 360 17fcaff8e7ce925a38553914c
2174d8716 309 34 359 ?362 304 310 363 0 0 1 81 1 312 483 150 310 0 0 359 364 365
 84 32 361 a320e627bb39b97810fe3a86edde7b9f81 1 364 484 150 314 0 0 312 366 367
 84 32 365 6199b97ea8baf11fb952ed8580b1fc8816 314 31 364 ?74 310 319 368 0 0 1 8
1 1 366 485 150 319 0 0 364 317 369 84 32 367 45db8cafeed60cb47a4b55beeeb1372b16
 319 36 366 ?78 314 315 370 0 0 1 81 1 317 486 150 315 0 0 366 371 372 84 32 369
 a16bd88d60182ed8c37bc52a2fab75ba81 1 371 487 150 320 0 0 317 323 373 84 32 372
 c0813eede45aa65d6ee258eba1cf3eb716 320 10 371 ?41 315 321 374 0 0 1 81 1 323 48
8 150 321 0 0 371 375 376 84 32 373 79049c42444d0a253db79b023ee7c89181 1 375 489
 150 40 0 0 323 377 378 84 32 376 6de051aaaa048cad1ae295e76772235116 40 7 375 ?3
9 321 329 379 0 0 1 81 1 377 490 150 329 0 0 375 327 380 84 32 378 f18b2118f2008
1dc4c23a15d648de2cf16 329 12 377 ?42 40 325 381 0 0 1 81 1 327 491 150 325 0 0 3
77 382 383 84 32 380 a9dab1f066c33bbd220ab510c447c2ba81 1 382 492 150 330 0 0 32
7 332 384 84 32 383 5ed2b3dcafb8a0b1864ef7761910b1cb16 330 43 382 ?224 325 331 3
85 0 0 1 81 1 332 493 150 331 0 0 382 386 387 84 32 384 013f5d09376046a19d15d09a
2c1a7af181 1 386 494 150 334 0 0 332 388 389 84 32 387 d4d11a2f0f3fdf9bd7f3ce4fd
a37b41816 334 40 386 ?86 331 390 391 0 0 1 81 1 388 495 150 390 0 0 386 228 392
 84 32 389 884573fc3194dd36c1bf51abcfd48eea16 390 45 388 ?90 334 0 393 0 0 1 81
 1 228 496 150 16 0 225 388 394 395 84 32 392 93f54f81b7b210c2df0cb0cd19e9b10981
 1 394 497 150 226 0 229 228 396 397 84 32 395 0bd0ace96cc99c5a27cbbe4cf6b8bd4f8
1 1 229 524 219 226 394 0 225 237 398 81 1 396 498 150 231 0 237 394 399 400 84
 32 397 587f96d280db2a31f87e19bd14a78c9b81 1 237 525 219 231 396 0 229 241 401 8
1 1 399 499 150 238 0 241 396 402 403 84 32 400 5f3ad1b693f3328855481dc4aa3df3e7
81 1 241 526 219 238 399 0 237 245 404 81 1 402 500 150 242 0 245 399 405 406 84
 32 403 2a97d4129b09ab9341bbf215d5ec260281 1 245 527 219 242 402 0 241 249 407 8
1 1 405 501 150 246 0 249 402 408 409 84 32 406 5e6dc26ee8cdef5dd8d9883ab96b30c9
81 1 249 528 219 246 405 0 245 253 410 81 1 408 502 150 250 0 253 405 411 412 84
 32 409 c82cc7931621dbca202c9c9497c6c55e81 1 253 529 219 250 408 0 249 257 413 8
1 1 411 503 150 254 0 257 408 414 415 84 32 412 29d8e680a31213c40d99835ee3a91ac1
81 1 257 530 219 254 411 0 253 261 416 81 1 414 504 150 258 0 261 411 417 418 84
 32 415 8db33e34008c62b0f1efa8421493f67881 1 261 531 219 258 414 0 257 264 419 8
1 1 417 505 150 262 0 264 414 268 420 84 32 418 ba48e7df9939b078b0f84661c317fc4c
81 1 264 532 219 262 417 0 261 267 421 81 1 268 506 150 265 0 267 417 271 422 84
 32 420 9352adc27a55f129691c304c5e69622381 1 271 507 150 144 0 269 268 275 423 8
4 32 422 26429143140de16c0fa1d7c607d32ff981 1 275 508 150 172 0 272 271 424 425
 84 32 423 dcb5747109eff6658ad44a3557200f3081 1 424 509 150 132 0 170 275 426 42
7 84 32 425 70e11947b6a27588224b2320bc7ff47f81 1 170 536 219 132 424 0 272 175 4
28 81 1 426 510 150 171 0 175 424 429 430 84 32 427 f459a335e2dc6f62c9578712c734
8c1c81 1 175 537 219 171 426 0 170 179 431 81 1 429 511 150 176 0 179 426 432 43
3 84 32 430 ca815835b573567da72e33bd3ce2c8d781 1 179 538 219 176 429 0 175 183 4
34 81 1 432 512 150 180 0 183 429 435 436 84 32 433 6d4c6547eef333313684a001d397
cd2e81 1 183 539 219 180 432 0 179 187 437 81 1 435 513 150 184 0 187 432 438 43
9 84 32 436 8dd7783242a3931eab422dc0c818aed881 1 187 540 219 184 435 0 183 191 4
40 81 1 438 514 150 188 0 191 435 441 442 84 32 439 36d6db3fb8eb9c628b7789702018
c90c81 1 191 541 219 188 438 0 187 195 443 81 1 441 515 150 192 0 195 438 444 44
5 84 32 442 749dea17cb0e92b965f0c808cfdc3d7481 1 195 542 219 192 441 0 191 199 4
46 81 1 444 516 150 196 0 199 441 447 448 84 32 445 65f14612cebd54095c2d39e9a980
a4d681 1 199 543 219 196 444 0 195 203 449 81 1 447 517 150 200 0 203 444 450 45
1 84 32 448 fac8c763fc07957ba00d13492c2fe20081 1 203 544 219 200 447 0 199 207 4
52 81 1 450 518 150 204 0 207 447 453 454 84 32 451 6884d658d4933cf460be49c1642c
a7a381 1 207 545 219 204 450 0 203 211 455 81 1 453 519 150 208 0 211 450 456 45
7 84 32 454 153c8497f70b10167c6493ce7794b30081 1 211 546 219 208 453 0 207 214 4
58 81 1 456 520 150 212 0 214 453 220 459 84 32 457 3e9c7a6ccbcffb0cae0591bc565f
2a1981 1 214 547 219 212 456 0 211 217 460 81 1 220 521 150 215 0 217 456 461 46
2 84 32 459 1402299ac826f055b45c2377cabd9fbd81 1 461 522 150 18 0 221 220 0 463
 84 32 462 283984e95dd9806754dbde5fc45671f581 1 221 549 219 18 461 0 217 0 464 8
4 32 463 3288d97c1ee3719984e7dd3fb3e99fda80 1 219 0 465 8001 0 0 0 0 3 5 0 0 0 F
FFFTFTFFFFFFF2 83 255 3 464 .7647059 .8823529 .745098 79 255 15 465 SDL/TYSA_COL
OUR83 3 460 .7647059 .8823529 .745098 83 3 458 .7647059 .8823529 .745098 83 3 45
5 .7647059 .8823529 .745098 83 3 452 .7647059 .8823529 .745098 83 3 449 .7647059
 .8823529 .745098 83 3 446 .7647059 .8823529 .745098 83 3 443 .7647059 .8823529
 .745098 83 3 440 .7647059 .8823529 .745098 83 3 437 .7647059 .8823529 .745098 8
3 3 434 .7647059 .8823529 .745098 83 3 431 .7647059 .8823529 .745098 83 3 428 .7
647059 .8823529 .745098 83 3 421 .7647059 .8823529 .745098 83 3 419 .7647059 .88
23529 .745098 83 3 416 .7647059 .8823529 .745098 83 3 413 .7647059 .8823529 .745
098 83 3 410 .7647059 .8823529 .745098 83 3 407 .7647059 .8823529 .745098 83 3 4
04 .7647059 .8823529 .745098 83 3 401 .7647059 .8823529 .745098 83 3 398 .764705
9 .8823529 .745098 17 90 0 223 466 467 83 92 390 0 468 +30 393 180 0 390 385 469
 0 +-.000466942259170475 -.003464006033072785 -.1054181559203038 156819002228304
e-29 148370054061928e-45 -1 31 385 178 0 330 391 393 0 +-.0002630060191344655 .0
0061089396692721 -.144637155920304 -156819002228304e-29 177635683940025e-27 1 -4
352601674315335e-45 1 -177635683940025e-27 .00408 31 469 182 0 470 393 471 0 +-.
000263006019134588 .00061089396692721 -.0661991559203039 -156819002228304e-29 -1
48370054061928e-45 1 -2326724383855105e-61 1 148370054061928e-45 .00408 16 470 4
7 472 ?473 474 475 469 0 0 1 31 471 184 0 476 469 477 0 +-.000263006019134453 .0
0061089396692721 -.152287155920304 156819002228304e-29 148370054061928e-45 -1 -1
25444879461133e-30 -1 -3450914623793755e-46 .0030855 16 476 50 478 ?479 480 481
 471 0 0 1 31 477 187 0 475 471 482 0 +-.000263006019134451 .00061089396692721 -
.153256155920304 156819002228304e-29 148370054061928e-45 -1 -125444879461133e-30
 -1 -3450914623793755e-46 .0030855 16 475 55 483 ?484 470 480 477 0 0 1 31 482 1
89 0 480 477 485 0 +-.000263006019134451 .00061089396692721 -.153256155920304 -1
56819002228304e-29 -148370054061928e-45 1 -2326724383855105e-61 1 14837005406192
8e-45 .00408 16 480 58 486 ?487 475 476 482 0 0 1 31 485 193 0 481 482 488 0 +-.
00026300601913444 .00061089396692721 -.160396155920304 156819002228304e-29 14837
0054061928e-45 -1 2326724383855105e-61 -1 -148370054061928e-45 .00306 16 481 65
 489 ?490 476 287 485 0 0 1 31 488 196 0 287 485 155 0 +-.000263006019134442 .00
061089396692721 -.159376155920304 -156819002228304e-29 -148370054061928e-45 1 23
26724383855105e-61 -1 -148370054061928e-45 .00408 16 287 69 491 ?492 481 282 488
 0 0 1 31 155 200 0 147 488 288 0 +-.000263006019134608 .00061089396692721 -.053
4491559203039 -156819002228304e-29 -148370054061928e-45 1 2326724383855105e-61 -
1 -148370054061928e-45 .0030855 81 1 491 460 150 287 0 0 489 284 493 17 492 0 25
5 492 492 104 106 287 0 0 +15 255 73 0 492 250 494 17 106 0 251 106 106 104 492
 287 0 492 -15 251 68 0 106 246 495 15 495 71 0 103 246 0 17 103 0 495 103 103 1
01 490 481 0 490 -17 490 0 247 490 490 101 103 481 0 0 +15 247 64 0 490 242 0 15
 494 74 0 100 250 0 17 100 0 494 100 100 98 487 480 0 487 -17 487 0 496 487 487
 98 100 480 0 0 +15 496 57 0 487 231 0 81 1 489 459 150 481 0 0 478 491 497 81 1
 284 461 150 282 0 0 491 281 498 84 32 493 6c30b29719d064916ef271723ca1a1d884 32
 498 af7c8d0b024c4f750aab09dd1ee6e07b81 1 478 458 150 476 0 0 486 489 499 84 32
 497 72f8379b907a155221e956f45786e38d81 1 486 457 150 480 0 0 483 478 500 84 32
 499 6e4e5c0f352f2ea4e7d1783f00dff08781 1 483 456 150 475 0 0 501 486 502 84 32
 500 a8a07928cdd3fdc438edd172ae26e2d581 1 501 455 150 503 0 0 504 483 505 84 32
 502 a70504d7d759d25389d2914f7a1dfb9016 503 28 501 ?506 507 474 508 0 0 1 81 1 5
04 454 150 507 0 0 0 501 509 84 32 505 90fd75cbd0780ed38ce8996047eb128416 507 25
 504 ?510 32 503 511 0 0 1 84 32 509 0ee3c125bb711333da1d3ba15a1bc80e17 510 0 51
2 510 510 58 64 507 0 0 +16 32 23 513 ?514 10 507 515 0 0 1 31 511 163 0 507 515
 508 0 +-.000263006019134608 .00061089396692721 -.0534491559203039 1568190022283
04e-29 148370054061928e-45 -1 2326724383855105e-61 -1 -148370054061928e-45 .0040
8 31 515 162 0 32 358 511 0 +-.000263006019134588 .00061089396692721 -.066199155
9203039 -156819002228304e-29 -148370054061928e-45 1 -2326724383855105e-61 1 1483
70054061928e-45 .00408 31 508 165 0 503 511 368 0 +-.000263006019134453 .0006108
9396692721 -.152287155920304 -156819002228304e-29 -148370054061928e-45 1 -232672
4383855105e-61 1 148370054061928e-45 .00408 30 368 167 0 314 508 363 0 +-.000466
942259170484 .00468579396692722 -.1054181559203038 -156819002228304e-29 -1483700
54061928e-45 1 31 363 170 0 309 368 370 0 +-.0002630060191344655 .00061089396692
721 -.144637155920304 -156819002228262e-29 -177635683940025e-27 1 43526016743141
65e-45 1 177635683940025e-27 .00408 30 370 172 0 319 363 516 0 +-590697790985873
e-19 .00468579396692722 -.1054181559203038 156819002228304e-29 148370054061928e-
45 -1 31 516 174 0 474 370 391 0 +-.000263006019134588 .00061089396692721 -.0661
991559203039 -156819002228304e-29 -148370054061928e-45 1 -2326724383855105e-61 1
 148370054061928e-45 .00408 16 474 38 517 ?518 503 470 516 0 0 1 30 391 175 0 33
4 516 385 0 +-590697790985781e-19 -.003464006033072785 -.1054181559203038 -15681
9002228304e-29 -148370054061928e-45 1 81 1 517 467 150 474 0 0 513 472 519 17 51
8 0 520 70 80 72 521 474 0 307 +15 520 30 0 70 16 522 17 70 0 520 523 518 68 74
 314 0 362 -17 80 0 520 518 523 75 78 319 0 521 -17 521 0 193 307 307 75 518 474
 0 524 -17 307 0 193 521 521 72 524 304 0 0 +15 193 123 0 307 188 0 17 524 0 201
 78 74 75 307 304 0 0 -15 201 129 0 74 196 0 17 78 0 201 525 524 71 80 319 0 523
 +17 74 0 201 524 525 72 70 314 0 518 +17 525 0 201 74 78 68 313 310 0 0 -17 313
 0 197 362 362 71 525 310 0 0 +15 197 126 0 362 192 0 17 362 0 197 313 313 68 52
3 309 0 525 +17 523 0 520 80 70 71 362 309 0 313 -15 522 39 0 82 16 0 17 82 0 52
2 468 473 76 86 334 0 224 -17 468 0 522 92 82 83 224 330 0 333 -17 473 0 522 82
 92 84 526 470 0 328 +17 86 0 223 467 466 84 82 334 0 473 +17 224 0 218 333 333
 76 468 330 0 466 +17 333 0 218 224 224 83 466 331 0 0 +17 466 0 223 86 90 76 33
3 331 0 0 -15 223 145 0 86 18 0 17 467 0 223 90 86 87 328 325 0 0 -17 328 0 216
 526 526 84 467 325 0 0 +15 216 139 0 328 212 0 17 526 0 216 328 328 87 473 470
 0 467 -17 92 0 522 473 468 87 90 390 0 526 -81 1 513 466 150 32 0 0 30 517 527
 81 1 472 468 150 470 0 0 517 156 528 84 32 519 de07fd2220017e0cf37811c08294145d
81 1 156 469 150 148 0 0 472 335 529 84 32 528 ed0cd2b81a718099083b52e545ff47958
4 32 529 83c7d3c7e0ec18b532f94e46a1e8a10581 1 30 465 150 10 0 0 146 513 530 84 3
2 527 69e4e8e89f4bb6129f7fd415666c11e984 32 530 2a67660e5342b60c35c7948aa72d78db
30 358 160 0 308 351 515 0 +.003811893980865475 .000406957726891277 -.1054181559
203038 156819002228304e-29 148370054061928e-45 -1 31 351 158 0 298 356 358 0 +-.
0002630060191344655 .00061089396692721 -.144637155920304 -179203873962308e-27 -6
6386823999367e-41 1 -1 -80153296332729e-56 -179203873962308e-27 .00408 30 356 15
5 0 303 33 351 0 +.003811893980865475 .000814830206963174 -.1054181559203038 -15
6819002228304e-29 -148370054061928e-45 1 31 33 154 0 10 381 356 0 +-.00026300601
9134588 .00061089396692721 -.0661991559203039 -156819002228304e-29 -148370054061
928e-45 1 -2326724383855105e-61 1 148370054061928e-45 .00408 30 381 152 0 329 37
4 33 0 +-.004337906019134525 .000814830206963155 -.1054181559203038 156819002228
304e-29 148370054061928e-45 -1 31 374 150 0 320 379 381 0 +-.0002630060191344655
 .00061089396692721 -.144637155920304 176067493917742e-27 20794390483884e-41 1 -
1 539644859421628e-57 176067493917742e-27 .00408 30 379 147 0 40 0 374 0 +-.0043
37906019134525 .0004069577268912565 -.1054181559203038 -156819002228304e-29 -148
370054061928e-45 1 17 514 0 234 52 62 54 531 32 0 297 +15 234 15 0 52 16 512 17
 52 0 234 532 514 47 56 303 0 350 -17 62 0 234 514 532 57 60 308 0 531 -17 531 0
 181 297 297 57 514 32 0 533 -17 297 0 181 531 531 54 533 292 0 0 +15 181 115 0
 297 176 0 17 533 0 189 60 56 57 297 292 0 0 -15 189 121 0 56 184 0 17 60 0 189
 534 533 53 62 308 0 532 +17 56 0 189 533 534 54 52 303 0 514 +17 534 0 189 56 6
0 47 302 299 0 0 -17 302 0 185 350 350 53 534 299 0 0 +15 185 118 0 350 180 0 17
 350 0 185 302 302 47 532 298 0 534 +17 532 0 234 62 52 53 350 298 0 302 -15 512
 24 0 510 16 535 15 535 27 0 506 16 520 17 506 0 535 506 506 65 67 503 0 0 +17 6
7 0 536 67 67 65 506 503 0 506 -15 536 52 0 67 226 0 17 64 0 537 64 64 58 510 50
7 0 510 -15 537 79 0 64 254 0 17 484 0 239 484 484 95 97 475 0 0 +15 239 54 0 48
4 231 496 17 97 0 538 97 97 95 484 475 0 484 -15 538 62 0 97 238 0 17 479 0 243
 479 479 88 94 476 0 0 +15 243 61 0 479 238 538 17 94 0 232 94 94 88 479 476 0 4
79 -15 232 49 0 94 226 536 17 42 0 213 539 540 35 50 329 0 38 +15 213 137 0 39 2
08 0 17 539 0 213 39 42 11 324 321 0 0 -17 540 0 213 42 39 43 318 315 0 0 -17 50
 0 37 31 38 43 42 329 0 541 -17 38 0 37 50 34 35 41 320 0 324 -17 41 0 209 324 3
24 11 38 320 0 539 +17 324 0 209 41 41 35 539 321 0 0 +15 209 134 0 41 204 0 17
 31 0 37 34 50 46 541 10 0 318 +17 541 0 205 318 318 43 31 10 0 540 -15 205 131
 0 318 200 0 17 318 0 205 541 541 46 540 315 0 0 +17 39 0 213 540 539 46 34 40 0
 31 +79 15 341 UGS/ObjectState17 135 0 138 134 124 27 139 158 0 157 -84 32 337 0
9006563b55bf9c033194797a1dabe3a17 286 0 263 286 286 110 112 282 0 0 +15 263 81 0
 286 258 280 17 112 0 542 112 112 110 286 282 0 286 -15 542 89 0 112 262 0 15 28
0 84 0 279 258 0 81 1 151 463 150 147 0 0 281 146 543 84 32 285 b52fe17e8cf362d5
26cd51382e3b487284 32 543 cb103d4070aeb722df3eedbaa4357a3b83 3 276 .7647059 .882
3529 .745098 83 3 273 .7647059 .8823529 .745098 83 3 270 .7647059 .8823529 .7450
98 15 266 88 0 153 262 542 17 153 0 266 153 153 107 109 147 0 0 +17 109 0 259 10
9 109 107 153 147 0 153 -15 259 76 0 109 254 537 83 3 230 .7647059 .8823529 .745
098 83 3 222 .7647059 .8823529 .745098 141 167 21 544 544 22 141 544 7 167 167 2
2 84 32 152 1022fd95385e6315d106f626a735219719 17 1 0 1 0 9 5 S0 40 3 24 0 1 3 .
0002739287030740635 .325301804296035 ??.002796993980865355 .00061089396692721 -.
0269801559203039 .002796993980865355 -.000485436314999917 -.02717062359235825 .0
0279699398086536 -.002087772370358625 -.02800015592030385 41 1 25 L?.00279699398
0865355 .00061089396692721 -.0269801559203039 41 1 26 L?.00279699398086536 -.002
087772370358625 -.02800015592030385 74 4 CI16 index_map_offset0 0 1 dCCZ20 15 6
 0 0 545 546 13 461 221 2 0 0 0 0 0 0 0 0 0 0 0 0 0 0 81 1 545 447 547 1 0 546 0
 0 548 81 1 546 449 549 1 545 13 0 0 550 81 2 13 453 551 1 546 2 0 0 552 553 80
 2 551 554 555 8004 0 0 0 0 3 5 0 0 0 FFTFFFFFFFFFFF2 3 83 1 552 7830.64 84 8 55
3 Kg/Cu M 79 16 555 SDL/TYSA_DENSITY80 1 549 556 557 9000 0 0 0 0 3 5 0 0 0 FFTF
FFFFFFFFFF1 82 255 1 550 98 79 7 557 body_id80 1 547 558 559 9000 0 0 0 0 3 5 0
 0 0 FFTFFFFFFFFFFF1 82 1 548 -1 79 19 559 UG2/PMARK_ATTRIBUTE80 1 12 560 561 90
00 0 0 0 0 3 5 0 0 0 FFTFFFFFFFFFFF1 82 1 14 57 79 24 561 UG2/BODY_COLOR_ATTRIBU
TE1 0 
